<svg xmlns="http://www.w3.org/2000/svg" width="1430" height="1414" viewBox="0 0 1430 1414" fill="none">
    <path d="M1430 707C1430 718.571 1429.71 730.134 1429.15 741.691C1428.58 753.247 1427.73 764.783 1426.59 776.298C1425.45 787.812 1424.04 799.293 1422.35 810.738C1420.65 822.184 1418.67 833.581 1416.41 844.929C1414.16 856.277 1411.62 867.563 1408.81 878.787C1406 890.01 1402.91 901.158 1399.55 912.231C1396.2 923.304 1392.57 934.288 1388.67 945.184C1384.78 956.074 1380.61 966.866 1376.18 977.558C1371.76 988.251 1367.07 998.823 1362.12 1009.28C1357.18 1019.74 1351.97 1030.08 1346.51 1040.28C1341.07 1050.48 1335.36 1060.55 1329.41 1070.47C1323.47 1080.4 1317.28 1090.17 1310.85 1099.79C1304.42 1109.41 1297.76 1118.87 1290.87 1128.16C1283.97 1137.45 1276.85 1146.57 1269.51 1155.52C1262.18 1164.46 1254.62 1173.22 1246.86 1181.79C1239.09 1190.37 1231.11 1198.75 1222.93 1206.93C1214.75 1215.11 1206.37 1223.09 1197.79 1230.86C1189.22 1238.62 1180.46 1246.18 1171.52 1253.51C1162.57 1260.85 1153.45 1267.97 1144.16 1274.87C1134.87 1281.76 1125.41 1288.42 1115.79 1294.85C1106.17 1301.28 1096.4 1307.47 1086.47 1313.41C1076.55 1319.36 1066.48 1325.07 1056.28 1330.51C1046.08 1335.97 1035.74 1341.18 1025.28 1346.12C1014.82 1351.07 1004.25 1355.76 993.558 1360.18C982.866 1364.61 972.074 1368.78 961.184 1372.67C950.287 1376.57 939.302 1380.2 928.231 1383.55C917.158 1386.91 906.01 1390 894.787 1392.81C883.563 1395.62 872.277 1398.16 860.929 1400.41C849.581 1402.67 838.184 1404.65 826.738 1406.35C815.293 1408.04 803.812 1409.45 792.298 1410.59C780.783 1411.73 769.247 1412.58 757.691 1413.15C746.134 1413.71 734.571 1414 723 1414C711.429 1414 699.866 1413.71 688.309 1413.15C676.753 1412.58 665.217 1411.73 653.702 1410.59C642.188 1409.45 630.707 1408.04 619.262 1406.35C607.816 1404.65 596.419 1402.67 585.071 1400.41C573.723 1398.16 562.437 1395.62 551.213 1392.81C539.99 1390 528.842 1386.91 517.769 1383.55C506.696 1380.2 495.713 1376.57 484.819 1372.67C473.925 1368.78 463.133 1364.61 452.443 1360.18C441.754 1355.76 431.178 1351.07 420.719 1346.12C410.259 1341.18 399.927 1335.97 389.723 1330.51C379.518 1325.07 369.454 1319.36 359.529 1313.41C349.605 1307.47 339.833 1301.28 330.212 1294.85C320.592 1288.42 311.134 1281.76 301.84 1274.87C292.547 1267.97 283.429 1260.85 274.484 1253.51C265.539 1246.18 256.781 1238.62 248.208 1230.86C239.635 1223.09 231.256 1215.11 223.075 1206.93C214.894 1198.75 206.918 1190.37 199.148 1181.79C191.377 1173.22 183.822 1164.46 176.482 1155.52C169.142 1146.57 162.025 1137.45 155.132 1128.16C148.24 1118.87 141.579 1109.41 135.151 1099.79C128.723 1090.17 122.534 1080.4 116.586 1070.47C110.637 1060.55 104.936 1050.48 99.4814 1040.28C94.0273 1030.08 88.8264 1019.74 83.8792 1009.28C78.9325 998.823 74.2452 988.251 69.8172 977.558C65.3891 966.866 61.2261 956.074 57.3282 945.184C53.4303 934.288 49.8019 923.304 46.4431 912.231C43.0843 901.158 39.999 890.01 37.1874 878.787C34.3766 867.563 31.8423 856.277 29.5849 844.929C27.3274 833.581 25.3497 822.184 23.6518 810.738C21.9546 799.293 20.5389 787.812 19.4047 776.298C18.2705 764.783 17.4195 753.247 16.8517 741.691C16.2839 730.134 16 718.571 16 707C16 695.429 16.2839 683.866 16.8517 672.309C17.4195 660.753 18.2705 649.217 19.4047 637.702C20.5389 626.188 21.9546 614.707 23.6518 603.262C25.3497 591.816 27.3274 580.419 29.5849 569.071C31.8423 557.723 34.3766 546.437 37.1874 535.213C39.999 523.99 43.0843 512.842 46.4431 501.769C49.8019 490.696 53.4303 479.713 57.3282 468.819C61.2261 457.925 65.3891 447.133 69.8172 436.443C74.2452 425.754 78.9325 415.178 83.8792 404.719C88.8264 394.259 94.0273 383.927 99.4814 373.723C104.936 363.518 110.637 353.454 116.586 343.529C122.534 333.605 128.723 323.833 135.151 314.212C141.579 304.592 148.24 295.134 155.132 285.84C162.025 276.547 169.142 267.429 176.482 258.484C183.822 249.539 191.377 240.781 199.148 232.208C206.918 223.635 214.894 215.256 223.075 207.075C231.256 198.894 239.635 190.918 248.208 183.148C256.781 175.377 265.539 167.822 274.484 160.482C283.429 153.142 292.547 146.025 301.84 139.132C311.134 132.24 320.592 125.579 330.212 119.151C339.833 112.723 349.605 106.534 359.529 100.586C369.454 94.6371 379.518 88.9356 389.723 83.4814C399.927 78.0273 410.259 72.8264 420.718 67.8792C431.178 62.9325 441.754 58.2452 452.443 53.8172C463.133 49.3891 473.925 45.2261 484.819 41.3282C495.713 37.4303 506.696 33.8019 517.769 30.4431C528.841 27.0843 539.989 23.999 551.213 21.1874C562.437 18.3766 573.723 15.8423 585.071 13.5849C596.419 11.3275 607.816 9.34998 619.262 7.65222C630.707 5.95446 642.188 4.53852 653.702 3.40437C665.217 2.2703 676.753 1.41937 688.309 0.851584C699.866 0.283861 711.429 0 723 0C734.571 0 746.134 0.283861 757.691 0.851584C769.247 1.41937 780.783 2.2703 792.298 3.40437C803.812 4.53852 815.293 5.95446 826.738 7.65222C838.184 9.34998 849.581 11.3275 860.929 13.5849C872.277 15.8423 883.563 18.3766 894.787 21.1874C906.01 23.999 917.158 27.0843 928.231 30.4431C939.302 33.8019 950.287 37.4303 961.184 41.3282C972.074 45.2261 982.866 49.3891 993.558 53.8172C1004.25 58.2452 1014.82 62.9325 1025.28 67.8792C1035.74 72.8264 1046.08 78.0273 1056.28 83.4814C1066.48 88.9356 1076.55 94.6371 1086.47 100.586C1096.4 106.534 1106.17 112.723 1115.79 119.151C1125.41 125.579 1134.87 132.24 1144.16 139.132C1153.45 146.025 1162.57 153.142 1171.52 160.482C1180.46 167.822 1189.22 175.377 1197.79 183.148C1206.37 190.918 1214.75 198.894 1222.93 207.075C1231.11 215.256 1239.09 223.635 1246.86 232.208C1254.62 240.781 1262.18 249.539 1269.51 258.484C1276.85 267.429 1283.97 276.547 1290.87 285.84C1297.76 295.134 1304.42 304.592 1310.85 314.212C1317.28 323.833 1323.47 333.605 1329.41 343.529C1335.36 353.454 1341.07 363.518 1346.51 373.723C1351.97 383.927 1357.18 394.259 1362.12 404.718C1367.07 415.178 1371.76 425.754 1376.18 436.443C1380.61 447.133 1384.78 457.925 1388.67 468.819C1392.57 479.713 1396.2 490.696 1399.55 501.769C1402.91 512.841 1406 523.989 1408.81 535.213C1411.62 546.437 1414.16 557.723 1416.41 569.071C1418.67 580.419 1420.65 591.816 1422.35 603.262C1424.04 614.707 1425.45 626.188 1426.59 637.702C1427.73 649.217 1428.58 660.753 1429.15 672.309C1429.71 683.866 1430 695.429 1430 707Z"
          fill="url(#linear_0)">
    </path>
    <ellipse cx="747.421875" cy="688.1771240234375" transform="rotate(-6.470529095078113e-7 238.421875 179.1796875)" rx="509" ry="508.9974365234375"
             fill="#E6F8FC">
    </ellipse>
    <path d="M1251.41 761.962C1254.92 737.811 1256.74 713.112 1256.74 687.988C1256.74 406.599 1028.63 178.489 747.242 178.489C465.853 178.489 237.742 406.599 237.742 687.988C237.742 969.377 465.853 1197.49 747.242 1197.49C806.854 1197.49 864.074 1187.25 917.242 1168.44C879.387 1122.19 856.675 1063.06 856.675 998.632C856.675 850.464 976.789 730.35 1124.96 730.35C1170.68 730.35 1213.73 741.789 1251.41 761.962Z"
          fill-rule="evenodd" fill="#FFFFFF">
    </path>
    <ellipse cx="754.4732055664062" cy="785.68408203125" transform="rotate(-6.470527338009021e-7 713.35546875 744.56640625)" rx="41.11773681640625"
             ry="41.11767578125" fill="#6969FF">
    </ellipse>
    <path d="M769.921 248.204C820.088 250.769 869.505 261.898 916.016 281.164C969.465 303.303 1018.03 335.754 1058.94 376.662C1099.85 417.571 1132.3 466.136 1154.44 519.586C1176.58 573.035 1187.97 630.322 1187.97 688.175L747.426 688.175L747.426 688.083C628.76 684.664 533.613 587.395 533.613 467.902C533.613 348.41 628.76 251.14 747.426 247.722L747.426 247.629C748.682 247.629 749.938 247.634 751.194 247.645C752.09 247.634 752.988 247.629 753.887 247.629C759.279 247.629 764.626 247.823 769.921 248.204Z"
          fill-rule="evenodd" fill="#6969FF">
    </path>
    <path stroke="rgba(83, 82, 237, 1)" stroke-width="14" stroke-linecap="round"
          d="M138.005 693.497L265.094 680.004C265.094 680.004 285.03 676.682 304.552 682.911C324.075 689.141 342.349 706.586 342.349 706.586L522.612 886.849">
    </path>
    <rect x="553.1484375" y="925.865234375" width="12.9227294921875" height="18.796630859375"
          transform="rotate(-45.000014489035365 553.1484375 925.865234375)" rx="4" fill="#6363FF">
    </rect>
    <rect x="502.66796875" y="902.62890625" width="51.6907958984375" height="61.089111328125" transform="rotate(-45 502.66796875 902.62890625)" rx="5"
          fill="#000000">
    </rect>
    <ellipse cx="88.109375" cy="776.4295654296875" transform="rotate(-45 0 688.3203125)" rx="88.109375" ry="88.1092529296875" fill="#FFFFFF">
    </ellipse>
    <defs>
        <linearGradient id="linear_0" x1="100%" y1="50.072%" x2="-4.233%" y2="46.78%" gradientUnits="objectBoundingBox">
            <stop offset="0" stop-color="#4D4DFF"/>
            <stop offset="1" stop-color="#000000"/>
        </linearGradient>
    </defs>
</svg>
