<svg xmlns="http://www.w3.org/2000/svg" width="612" height="550" viewBox="0 0 612 550" fill="none">
    <g opacity="1" transform="translate(0 0)  rotate(0)">
        <g opacity="1" transform="translate(540 205)  rotate(0)">
            <path id="圆形 5" fill-rule="evenodd" style="fill:#1B5195" opacity="1"
                  d="M36 0C16.12 0 0 16.12 0 36C0 55.88 16.12 72 36 72C55.88 72 72 55.88 72 36C72 16.12 55.88 0 36 0Z"></path>
            <path id="圆形 5" fill-rule="evenodd" style="fill:#1B5195" opacity="1"
                  d="M36 67C16.12 67 0 83.12 0 103C0 122.88 16.12 139 36 139C55.88 139 72 122.88 72 103C72 83.12 55.88 67 36 67Z"></path>
            <path id="矩形 1" fill-rule="evenodd" style="fill:#1B5195" opacity="1" d="M0 103L61 103L61 36L0 36L0 103Z"></path>
            <path id="圆形 5" fill-rule="evenodd" style="fill:#FFFFFF" opacity="1"
                  d="M36 22C28.27 22 22 28.27 22 36C22 43.73 28.27 50 36 50C43.73 50 50 43.73 50 36C50 28.27 43.73 22 36 22Z"></path>
            <path id="圆形 5" fill-rule="evenodd" style="fill:#FFFFFF" opacity="1"
                  d="M36 89C28.27 89 22 95.27 22 103C22 110.73 28.27 117 36 117C43.73 117 50 110.73 50 103C50 95.27 43.73 89 36 89Z"></path>
        </g>
        <g opacity="1" transform="translate(0 0)  rotate(0)">
            <g opacity="1" transform="translate(0 0)  rotate(0)">
                <g opacity="1" transform="translate(0 0)  rotate(0)">
                    <g opacity="1" transform="translate(0 0)  rotate(0)">
                        <path id="圆形 2" fill-rule="evenodd" style="fill:#E6F8FC" opacity="1"
                              d="M270.5 275L0 275C0 311.11 7 346.87 20.59 380.24C34.18 413.6 54.11 443.92 79.23 469.45C104.35 494.99 134.17 515.25 166.98 529.07C199.8 542.89 234.98 550 270.5 550C306.02 550 341.2 542.89 374.02 529.07C406.83 515.25 436.65 494.99 461.77 469.45C486.89 443.92 506.82 413.6 520.41 380.24C534 346.87 541 311.11 541 275L270.5 275Z"></path>
                        <path id="减去顶层" fill-rule="evenodd" style="fill:#5352ED" opacity="1"
                              d="M520.41,380.24c-13.59,33.36 -33.52,63.68 -58.64,89.21c-25.12,25.54 -54.94,45.8 -87.75,59.62c-32.82,13.82 -68,20.93 -103.52,20.93c-11.749,0 -23.461,-0.778 -35.062,-2.319c-22.814,-105.153 -113.198,-184.518 -222.4958,-188.64c-8.56046,-27.121 -12.9422,-55.472 -12.9422,-84.041h541c0,36.11 -7,71.87 -20.59,105.24z"></path>
                    </g>
                    <path id="圆形 3" fill-rule="evenodd" style="fill:#FFFFFF" opacity="1"
                          d="M205 295C185.12 295 169 311.12 169 331C169 350.88 185.12 367 205 367C224.88 367 241 350.88 241 331C241 311.12 224.88 295 205 295Z"></path>
                </g>
            </g>
            <g opacity="1" transform="translate(0 5)  rotate(0)">
                <path id="圆形 2" fill-rule="evenodd" style="fill:#3392C5" opacity="1"
                      d="M270.5 270.5L0 270.5C0 234.98 7 199.8 20.59 166.98C34.18 134.17 54.11 104.35 79.23 79.23C104.35 54.11 134.17 34.18 166.98 20.59C199.8 7 234.98 0 270.5 0C306.02 0 341.2 7 374.02 20.59C406.83 34.18 436.65 54.11 461.77 79.23C486.89 104.35 506.82 134.17 520.41 166.98C534 199.8 541 234.98 541 270.5L270.5 270.5Z"></path>
                <path id="圆形 2" fill-rule="evenodd" style="fill:#4CB5D8" opacity="1"
                      d="M270.5 270.5L15 270.5C15 236.95 21.61 203.72 34.45 172.72C47.29 141.73 66.11 113.56 89.83 89.83C113.56 66.11 141.73 47.29 172.72 34.45C203.72 21.61 236.95 15 270.5 15C304.05 15 337.28 21.61 368.28 34.45C399.27 47.29 427.44 66.11 451.17 89.83C474.89 113.56 493.71 141.73 506.55 172.72C519.39 203.72 526 236.95 526 270.5L270.5 270.5Z"></path>
                <path id="圆形 2" fill-rule="evenodd" style="fill:#66D2E8" opacity="1"
                      d="M270.5 270.5L30 270.5C30 238.92 36.22 207.64 48.31 178.46C60.39 149.29 78.11 122.77 100.44 100.44C122.77 78.11 149.29 60.39 178.46 48.31C207.64 36.22 238.92 30 270.5 30C302.08 30 333.36 36.22 362.54 48.31C391.71 60.39 418.23 78.11 440.56 100.44C462.89 122.77 480.61 149.29 492.69 178.46C504.78 207.64 511 238.92 511 270.5L270.5 270.5Z"></path>
                <path id="圆形 2" fill-rule="evenodd" style="fill:#A3E4F1" opacity="1"
                      d="M270.5 270.5L45 270.5C45 240.89 50.83 211.56 62.17 184.2C73.5 156.85 90.11 131.99 111.05 111.05C131.99 90.11 156.85 73.5 184.2 62.17C211.56 50.83 240.89 45 270.5 45C300.11 45 329.44 50.83 356.8 62.17C384.15 73.5 409.01 90.11 429.95 111.05C450.89 131.99 467.5 156.85 478.83 184.2C490.17 211.56 496 240.89 496 270.5L270.5 270.5Z"></path>
                <path id="圆形 2" fill-rule="evenodd" style="fill:#D3F3F9" opacity="1"
                      d="M270.5 270.5L73 270.5C73 244.56 78.11 218.88 88.03 194.92C97.96 170.96 112.51 149.19 130.85 130.85C149.19 112.51 170.96 97.96 194.92 88.03C218.88 78.11 244.56 73 270.5 73C296.44 73 322.12 78.11 346.08 88.03C370.04 97.96 391.81 112.51 410.15 130.85C428.49 149.19 443.04 170.96 452.97 194.92C462.89 218.88 468 244.56 468 270.5L270.5 270.5Z"></path>
                <path id="圆形 2" fill-rule="evenodd" style="fill:#1B5195" opacity="1"
                      d="M270.5 270.5L166 270.5C166 256.78 168.7 243.19 173.95 230.51C179.21 217.83 186.9 206.31 196.61 196.61C206.31 186.9 217.83 179.21 230.51 173.95C243.19 168.7 256.78 166 270.5 166C284.22 166 297.81 168.7 310.49 173.95C323.17 179.21 334.69 186.9 344.39 196.61C354.1 206.31 361.79 217.83 367.05 230.51C372.3 243.19 375 256.78 375 270.5L270.5 270.5Z"></path>
            </g>
        </g>
    </g>
</svg>
