<svg xmlns="http://www.w3.org/2000/svg" fill="none" version="1.1" width="1572" height="1572"
     viewBox="0 0 1572 1572">
    <defs>
        <filter id="master_svg0_3_1677" filterUnits="objectBoundingBox" color-interpolation-filters="sRGB" x="0" y="0" width="1572" height="1572">
            <feFlood flood-opacity="0" result="BackgroundImageFix"/>
            <feBlend mode="normal" in="SourceGraphic" in2="BackgroundImageFix" result="shape"/>
            <feGaussianBlur in="BackgroundImage" stdDeviation="5"/>
            <feComposite in2="SourceAlpha" operator="in" result="effect1_foregroundBlur"/>
            <feBlend mode="normal" in="SourceGraphic" in2="effect1_foregroundBlur" result="shape"/>
        </filter>
        <linearGradient x1="0.8112936019897461" y1="0.11268549412488937" x2="0.14290612936019897" y2="0.8563328981399536" id="master_svg1_3_2540">
            <stop offset="0%" stop-color="#5352ED" stop-opacity="1"/>
            <stop offset="100%" stop-color="#000000" stop-opacity="1"/>
        </linearGradient>
        <filter id="master_svg2_3_2549" filterUnits="objectBoundingBox" color-interpolation-filters="sRGB" x="0" y="0" width="1378" height="1378">
            <feFlood flood-opacity="0" result="BackgroundImageFix"/>
            <feBlend mode="normal" in="SourceGraphic" in2="BackgroundImageFix" result="shape"/>
            <feGaussianBlur in="BackgroundImage" stdDeviation="5"/>
            <feComposite in2="SourceAlpha" operator="in" result="effect1_foregroundBlur"/>
            <feBlend mode="normal" in="SourceGraphic" in2="effect1_foregroundBlur" result="shape"/>
        </filter>
        <linearGradient x1="0.8112936019897461" y1="0.11268549412488937" x2="0.14290612936019897" y2="0.8563328981399536" id="master_svg3_3_2540">
            <stop offset="0%" stop-color="#5352ED" stop-opacity="1"/>
            <stop offset="100%" stop-color="#000000" stop-opacity="1"/>
        </linearGradient>
    </defs>
    <g>
        <g filter="url(#master_svg0_3_1677)">
            <path d="M1572,786Q1572,805.295,1571.05,824.567Q1570.11,843.839,1568.22,863.041Q1566.32,882.244,1563.49,901.33Q1560.66,920.417,1556.9,939.341Q1553.13,958.265,1548.44,976.982Q1543.76,995.699,1538.15,1014.16Q1532.55,1032.63,1526.05,1050.8Q1519.55,1068.96,1512.17,1086.79Q1504.78,1104.62,1496.54,1122.06Q1488.29,1139.5,1479.19,1156.52Q1470.09,1173.53,1460.17,1190.08Q1450.25,1206.63,1439.53,1222.68Q1428.81,1238.72,1417.32,1254.22Q1405.83,1269.72,1393.59,1284.63Q1381.35,1299.55,1368.39,1313.85Q1355.43,1328.14,1341.79,1341.79Q1328.14,1355.43,1313.85,1368.39Q1299.55,1381.35,1284.63,1393.59Q1269.72,1405.83,1254.22,1417.32Q1238.72,1428.81,1222.68,1439.53Q1206.63,1450.25,1190.08,1460.17Q1173.53,1470.09,1156.52,1479.19Q1139.5,1488.29,1122.06,1496.54Q1104.62,1504.79,1086.79,1512.17Q1068.96,1519.55,1050.8,1526.05Q1032.63,1532.55,1014.16,1538.15Q995.699,1543.76,976.982,1548.44Q958.265,1553.13,939.341,1556.9Q920.417,1560.66,901.33,1563.49Q882.244,1566.32,863.041,1568.22Q843.839,1570.11,824.567,1571.05Q805.295,1572,786,1572Q766.705,1572,747.433,1571.05Q728.161,1570.11,708.958,1568.22Q689.756,1566.32,670.67,1563.49Q651.583,1560.66,632.659,1556.9Q613.734,1553.13,595.018,1548.44Q576.301,1543.76,557.836,1538.15Q539.372,1532.55,521.205,1526.05Q503.037,1519.55,485.211,1512.17Q467.384,1504.78,449.942,1496.54Q432.499,1488.29,415.482,1479.19Q398.465,1470.09,381.915,1460.17Q365.365,1450.25,349.322,1439.53Q333.278,1428.81,317.78,1417.32Q302.282,1405.83,287.367,1393.59Q272.451,1381.35,258.155,1368.39Q243.858,1355.43,230.214,1341.79Q216.57,1328.14,203.612,1313.85Q190.655,1299.55,178.414,1284.63Q166.173,1269.72,154.679,1254.22Q143.185,1238.72,132.465,1222.68Q121.745,1206.63,111.825,1190.08Q101.906,1173.53,92.8099,1156.52Q83.7142,1139.5,75.4644,1122.06Q67.2146,1104.62,59.8307,1086.79Q52.4467,1068.96,45.9464,1050.8Q39.446,1032.63,33.8449,1014.16Q28.2438,995.699,23.5554,976.982Q18.8671,958.265,15.1028,939.341Q11.3385,920.417,8.50726,901.33Q5.67607,882.244,3.7848,863.041Q1.89354,843.839,0.946771,824.567Q0,805.295,0,786Q0,766.705,0.946771,747.433Q1.89354,728.161,3.7848,708.958Q5.67607,689.756,8.50726,670.67Q11.3385,651.583,15.1028,632.659Q18.8671,613.734,23.5554,595.018Q28.2438,576.301,33.8449,557.836Q39.446,539.372,45.9464,521.205Q52.4467,503.037,59.8307,485.211Q67.2146,467.384,75.4644,449.942Q83.7142,432.499,92.8099,415.482Q101.906,398.465,111.825,381.915Q121.745,365.365,132.465,349.322Q143.185,333.278,154.679,317.78Q166.173,302.282,178.414,287.367Q190.655,272.451,203.612,258.155Q216.57,243.858,230.214,230.214Q243.858,216.57,258.155,203.612Q272.451,190.655,287.367,178.414Q302.282,166.173,317.78,154.679Q333.278,143.185,349.322,132.465Q365.365,121.745,381.915,111.825Q398.465,101.906,415.482,92.8099Q432.499,83.7142,449.942,75.4644Q467.384,67.2146,485.211,59.8307Q503.037,52.4467,521.205,45.9464Q539.372,39.446,557.836,33.8449Q576.301,28.2438,595.018,23.5554Q613.734,18.8671,632.659,15.1028Q651.583,11.3385,670.67,8.50726Q689.756,5.67607,708.959,3.7848Q728.161,1.89354,747.433,0.946771Q766.705,0,786,0Q805.295,0,824.567,0.946771Q843.839,1.89354,863.041,3.7848Q882.244,5.67607,901.33,8.50726Q920.417,11.3385,939.341,15.1028Q958.265,18.8671,976.982,23.5554Q995.699,28.2438,1014.16,33.8449Q1032.63,39.446,1050.8,45.9464Q1068.96,52.4467,1086.79,59.8307Q1104.62,67.2146,1122.06,75.4644Q1139.5,83.7142,1156.52,92.8099Q1173.53,101.906,1190.08,111.825Q1206.63,121.745,1222.68,132.465Q1238.72,143.185,1254.22,154.679Q1269.72,166.173,1284.63,178.414Q1299.55,190.655,1313.85,203.612Q1328.14,216.57,1341.79,230.214Q1355.43,243.858,1368.39,258.155Q1381.35,272.451,1393.59,287.367Q1405.83,302.282,1417.32,317.78Q1428.81,333.278,1439.53,349.322Q1450.25,365.365,1460.17,381.915Q1470.09,398.465,1479.19,415.482Q1488.29,432.499,1496.54,449.942Q1504.79,467.384,1512.17,485.211Q1519.55,503.037,1526.05,521.205Q1532.55,539.372,1538.15,557.836Q1543.76,576.301,1548.44,595.018Q1553.13,613.734,1556.9,632.659Q1560.66,651.583,1563.49,670.67Q1566.32,689.756,1568.22,708.959Q1570.11,728.161,1571.05,747.433Q1572,766.705,1572,786Z"
                  fill="url(#master_svg1_3_2540)" fill-opacity="1"/>
        </g>
        <g filter="url(#master_svg2_3_2549)">
            <path d="M1482,778Q1482,794.914,1481.17,811.808Q1480.34,828.701,1478.68,845.534Q1477.02,862.366,1474.54,879.097Q1472.06,895.828,1468.76,912.417Q1465.46,929.006,1461.35,945.413Q1457.24,961.82,1452.33,978.006Q1447.42,994.192,1441.72,1010.117Q1436.03,1026.042,1429.55,1041.6689999999999Q1423.08,1057.295,1415.85,1072.585Q1408.62,1087.875,1400.64,1102.79Q1392.67,1117.71,1383.97,1132.22Q1375.28,1146.72,1365.88,1160.79Q1356.49,1174.85,1346.41,1188.44Q1336.33,1202.02,1325.6,1215.1Q1314.87,1228.17,1303.52,1240.7Q1292.16,1253.24,1280.2,1265.2Q1268.24,1277.16,1255.7,1288.52Q1243.17,1299.87,1230.1,1310.6Q1217.02,1321.33,1203.44,1331.41Q1189.85,1341.49,1175.79,1350.88Q1161.72,1360.28,1147.22,1368.97Q1132.71,1377.67,1117.79,1385.64Q1102.875,1393.62,1087.585,1400.85Q1072.295,1408.08,1056.6689999999999,1414.55Q1041.042,1421.03,1025.117,1426.72Q1009.192,1432.42,993.006,1437.33Q976.82,1442.24,960.413,1446.35Q944.006,1450.46,927.417,1453.76Q910.828,1457.06,894.097,1459.54Q877.366,1462.02,860.534,1463.68Q843.701,1465.34,826.808,1466.17Q809.914,1467,793,1467Q776.086,1467,759.192,1466.17Q742.299,1465.34,725.466,1463.68Q708.634,1462.02,691.903,1459.54Q675.172,1457.06,658.583,1453.76Q641.994,1450.46,625.587,1446.35Q609.1800000000001,1442.24,592.994,1437.33Q576.808,1432.42,560.883,1426.72Q544.9580000000001,1421.03,529.331,1414.55Q513.7049999999999,1408.08,498.415,1400.85Q483.124,1393.62,468.208,1385.64Q453.291,1377.67,438.783,1368.97Q424.276,1360.28,410.212,1350.88Q396.149,1341.49,382.563,1331.41Q368.978,1321.33,355.903,1310.6Q342.828,1299.87,330.296,1288.52Q317.76300000000003,1277.16,305.803,1265.2Q293.84299999999996,1253.24,282.485,1240.7Q271.126,1228.17,260.39599999999996,1215.1Q249.666,1202.02,239.59,1188.44Q229.514,1174.85,220.11700000000002,1160.79Q210.721,1146.72,202.025,1132.22Q193.32940000000002,1117.71,185.3562,1102.79Q177.38299999999998,1087.875,170.1514,1072.585Q162.9197,1057.295,156.447,1041.6689999999999Q149.9743,1026.042,144.27609999999999,1010.117Q138.578,994.192,133.6681,978.006Q128.7582,961.82,124.6485,945.413Q120.5387,929.006,117.2389,912.417Q113.93918,895.828,111.45738,879.097Q108.97558,862.366,107.31772,845.534Q105.65986,828.701,104.829931,811.808Q104,794.914,104,778Q104,761.086,104.829931,744.192Q105.65986,727.299,107.31772,710.466Q108.97558,693.634,111.45738,676.903Q113.93918,660.172,117.2389,643.583Q120.5387,626.994,124.6485,610.587Q128.7582,594.1800000000001,133.6681,577.994Q138.578,561.808,144.27609999999999,545.883Q149.9743,529.9580000000001,156.447,514.331Q162.9197,498.705,170.1514,483.415Q177.38299999999998,468.124,185.3562,453.208Q193.32940000000002,438.291,202.025,423.783Q210.721,409.276,220.11700000000002,395.212Q229.514,381.149,239.59,367.563Q249.666,353.978,260.39599999999996,340.903Q271.126,327.828,282.485,315.296Q293.84299999999996,302.76300000000003,305.803,290.803Q317.76300000000003,278.84299999999996,330.296,267.485Q342.828,256.126,355.903,245.396Q368.978,234.666,382.563,224.59Q396.149,214.514,410.212,205.11700000000002Q424.276,195.721,438.783,187.025Q453.291,178.32940000000002,468.208,170.3562Q483.124,162.38299999999998,498.414,155.1514Q513.7049999999999,147.9197,529.331,141.447Q544.9580000000001,134.9743,560.883,129.27609999999999Q576.808,123.578,592.994,118.6681Q609.179,113.7582,625.587,109.6485Q641.994,105.5387,658.583,102.2389Q675.172,98.93918,691.903,96.45738Q708.634,93.97558,725.466,92.31772Q742.299,90.65986,759.192,89.829931Q776.086,89,793,89Q809.914,89,826.808,89.829931Q843.701,90.65986,860.534,92.31772Q877.366,93.97558,894.097,96.45738Q910.828,98.93918,927.417,102.2389Q944.006,105.5387,960.413,109.6485Q976.82,113.7582,993.006,118.6681Q1009.192,123.578,1025.117,129.27609999999999Q1041.042,134.9743,1056.6689999999999,141.447Q1072.295,147.9197,1087.585,155.1514Q1102.875,162.38299999999998,1117.79,170.3562Q1132.71,178.32940000000002,1147.22,187.025Q1161.72,195.721,1175.79,205.11700000000002Q1189.85,214.514,1203.44,224.59Q1217.02,234.666,1230.1,245.396Q1243.17,256.126,1255.7,267.485Q1268.24,278.84299999999996,1280.2,290.803Q1292.16,302.76300000000003,1303.52,315.296Q1314.87,327.828,1325.6,340.903Q1336.33,353.978,1346.41,367.563Q1356.49,381.149,1365.88,395.212Q1375.28,409.276,1383.97,423.783Q1392.67,438.291,1400.64,453.208Q1408.62,468.124,1415.85,483.414Q1423.08,498.705,1429.55,514.331Q1436.03,529.9580000000001,1441.72,545.883Q1447.42,561.808,1452.33,577.994Q1457.24,594.179,1461.35,610.587Q1465.46,626.994,1468.76,643.583Q1472.06,660.172,1474.54,676.903Q1477.02,693.634,1478.68,710.466Q1480.34,727.299,1481.17,744.192Q1482,761.086,1482,778Z"
                  fill="url(#master_svg3_3_2540)" fill-opacity="1"/>
        </g>
        <g>
            <g transform="matrix(1,0,0,-1,0,2712)">
                <path d="M208.00390625 1416C208.00390625 1382.8629150101524 234.8668212601524 1356 268.00390625 1356L786.00146484375 1356C1105.2207018945085 1356 1363.9990234375 1614.7783215429915 1363.9990234375 1933.99755859375L1363.9990234375 1934.0023193359375C1363.9990234375 2253.221556386696 1105.2207018945085 2511.9998779296875 786.00146484375 2511.9998779296875L786.00146484375 2511.9998779296875C466.7822277929915 2511.9998779296875 208.00390625 2253.221556386696 208.00390625 1934.0023193359375Z"
                      fill="#5352ED" fill-opacity="1"/>
            </g>
            <g>
                <g transform="matrix(1,-1.1293259660760668e-8,1.1293259660760668e-8,1,-0.0000022586519321521337,0.000002348998009438219)">
                    <path d="M1363.999999999999,778.0000000000005Q1363.999999999999,792.1890000000004,1363.299999999999,806.3610000000004Q1362.609999999999,820.5330000000005,1361.2199999999991,834.6540000000005Q1359.829999999999,848.7750000000004,1357.739999999999,862.8100000000004Q1355.6599999999992,876.8460000000005,1352.8899999999992,890.7620000000004Q1350.1299999999992,904.6790000000004,1346.6799999999992,918.4420000000005Q1343.229999999999,932.2060000000005,1339.109999999999,945.7840000000004Q1334.989999999999,959.3630000000005,1330.2099999999991,972.7220000000004Q1325.4299999999992,986.0820000000004,1319.999999999999,999.1910000000005Q1314.569999999999,1012.3000000000004,1308.509999999999,1025.1270000000004Q1302.4399999999991,1037.9530000000004,1295.749999999999,1050.4670000000006Q1289.059999999999,1062.9810000000004,1281.769999999999,1075.1510000000005Q1274.4699999999991,1087.3220000000006,1266.589999999999,1099.1190000000006Q1258.7099999999991,1110.9170000000006,1250.249999999999,1122.3140000000005Q1241.799999999999,1133.7110000000005,1232.799999999999,1144.6790000000005Q1223.799999999999,1155.6480000000006,1214.269999999999,1166.1610000000005Q1204.740999999999,1176.6740000000004,1194.7079999999992,1186.7080000000005Q1184.673999999999,1196.7410000000004,1174.1609999999991,1206.2700000000004Q1163.6479999999992,1215.8000000000004,1152.6789999999992,1224.8000000000004Q1141.710999999999,1233.8000000000004,1130.3139999999992,1242.2500000000005Q1118.9169999999992,1250.7100000000005,1107.1189999999992,1258.5900000000004Q1095.3219999999992,1266.4700000000005,1083.1509999999992,1273.7700000000004Q1070.980999999999,1281.0600000000004,1058.4669999999992,1287.7500000000005Q1045.953999999999,1294.4400000000005,1033.126999999999,1300.5100000000004Q1020.299999999999,1306.5700000000004,1007.1909999999991,1312.0000000000005Q994.0819999999991,1317.4300000000005,980.7219999999991,1322.2100000000005Q967.3629999999991,1326.9900000000005,953.7839999999991,1331.1100000000004Q940.2059999999991,1335.2300000000005,926.4429999999991,1338.6800000000005Q912.6789999999991,1342.1300000000006,898.761999999999,1344.8900000000006Q884.8459999999991,1347.6600000000005,870.809999999999,1349.7400000000005Q856.7749999999991,1351.8300000000004,842.6539999999991,1353.2200000000005Q828.5329999999991,1354.6100000000004,814.3609999999991,1355.3000000000004Q800.188999999999,1356.0000000000005,785.9999999999991,1356.0000000000005Q771.8109999999991,1356.0000000000005,757.6389999999991,1355.3000000000004Q743.4669999999991,1354.6100000000004,729.3459999999991,1353.2200000000005Q715.2249999999991,1351.8300000000004,701.1899999999991,1349.7400000000005Q687.1539999999991,1347.6600000000005,673.2379999999991,1344.8900000000006Q659.3209999999991,1342.1300000000006,645.5569999999991,1338.6800000000005Q631.7939999999991,1335.2300000000005,618.2149999999991,1331.1100000000004Q604.6369999999991,1326.9900000000005,591.2779999999991,1322.2100000000005Q577.9179999999991,1317.4300000000005,564.8089999999992,1312.0000000000005Q551.6999999999991,1306.5700000000004,538.8729999999991,1300.5100000000004Q526.0459999999991,1294.4400000000005,513.5329999999991,1287.7500000000005Q501.0189999999991,1281.0600000000004,488.84899999999914,1273.7700000000004Q476.6779999999991,1266.4700000000005,464.8799999999991,1258.5900000000004Q453.0829999999991,1250.7100000000005,441.6859999999991,1242.2500000000005Q430.2889999999991,1233.8000000000004,419.3209999999991,1224.8000000000004Q408.3519999999991,1215.8000000000004,397.83899999999915,1206.2700000000004Q387.32499999999914,1196.7410000000004,377.2919999999991,1186.7080000000005Q367.2589999999991,1176.6740000000004,357.7299999999991,1166.1610000000005Q348.2009999999991,1155.6480000000006,339.19999999999914,1144.6790000000005Q330.1979999999991,1133.7110000000005,321.7459999999991,1122.3140000000005Q313.29399999999913,1110.9170000000006,305.41059999999914,1099.1190000000006Q297.5274999999991,1087.3220000000006,290.2328999999991,1075.1510000000005Q282.93819999999914,1062.9810000000004,276.2494999999991,1050.4670000000006Q269.5607999999991,1037.9540000000004,263.4941999999991,1025.1270000000004Q257.42759999999913,1012.3000000000004,251.99759999999912,999.1910000000005Q246.56769999999912,986.0820000000004,241.7874999999991,972.7220000000004Q237.0073999999991,959.3630000000005,232.8884999999991,945.7840000000004Q228.76959999999912,932.2060000000005,225.32189999999912,918.4430000000004Q221.87429999999912,904.6790000000004,219.10609999999912,890.7620000000004Q216.33794999999913,876.8460000000005,214.2559799999991,862.8100000000004Q212.17399999999913,848.7750000000004,210.78322999999912,834.6540000000005Q209.39244999999912,820.5330000000005,208.69622599999911,806.3610000000004Q207.99999999999912,792.1890000000004,207.99999999999912,778.0000000000005Q207.99999999999912,763.8110000000005,208.69622599999911,749.6390000000005Q209.39244999999912,735.4670000000004,210.78322999999912,721.3460000000005Q212.17399999999913,707.2250000000005,214.2559799999991,693.1900000000005Q216.33794999999913,679.1540000000005,219.10609999999912,665.2380000000005Q221.87429999999912,651.3210000000005,225.32189999999912,637.5570000000005Q228.76959999999912,623.7940000000004,232.8884999999991,610.2150000000005Q237.0073999999991,596.6370000000005,241.7874999999991,583.2780000000005Q246.56769999999912,569.9180000000005,251.99759999999912,556.8090000000005Q257.42759999999913,543.7000000000005,263.4941999999991,530.8730000000005Q269.5607999999991,518.0460000000005,276.2494999999991,505.53300000000047Q282.93819999999914,493.01900000000046,290.2328999999991,480.8490000000005Q297.5274999999991,468.67800000000045,305.41059999999914,456.88000000000045Q313.29399999999913,445.0830000000005,321.7459999999991,433.6860000000005Q330.1979999999991,422.28900000000044,339.19999999999914,411.3210000000005Q348.2009999999991,400.3520000000005,357.7299999999991,389.8390000000005Q367.2589999999991,379.3250000000005,377.2919999999991,369.2920000000005Q387.32499999999914,359.25900000000047,397.83899999999915,349.7300000000005Q408.3519999999991,340.2010000000005,419.3209999999991,331.2000000000005Q430.2889999999991,322.1980000000005,441.6859999999991,313.7460000000005Q453.0829999999991,305.2940000000005,464.8799999999991,297.4106000000005Q476.6779999999991,289.5275000000005,488.84899999999914,282.2329000000005Q501.0189999999991,274.9382000000005,513.5329999999991,268.24950000000047Q526.0459999999991,261.5608000000005,538.8729999999991,255.4942000000005Q551.6999999999991,249.4276000000005,564.8089999999992,243.9976000000005Q577.9179999999991,238.56770000000049,591.2779999999991,233.78750000000048Q604.6369999999991,229.00740000000047,618.2149999999991,224.88850000000048Q631.7939999999991,220.76960000000048,645.5569999999991,217.32190000000048Q659.3209999999991,213.8743000000005,673.2379999999991,211.10610000000048Q687.1539999999991,208.3379500000005,701.1899999999991,206.25598000000048Q715.2249999999991,204.1740000000005,729.3459999999991,202.7832300000005Q743.4669999999991,201.39245000000048,757.6389999999991,200.69622600000048Q771.8109999999991,200.00000000000048,785.9999999999991,200.00000000000048Q800.188999999999,200.00000000000048,814.3609999999991,200.69622600000048Q828.5329999999991,201.39245000000048,842.6539999999991,202.7832300000005Q856.7749999999991,204.1740000000005,870.809999999999,206.25598000000048Q884.8459999999991,208.3379500000005,898.761999999999,211.10610000000048Q912.6789999999991,213.8743000000005,926.4419999999991,217.32190000000048Q940.2059999999991,220.76960000000048,953.7839999999991,224.88850000000048Q967.3629999999991,229.00740000000047,980.7219999999991,233.78750000000048Q994.0819999999991,238.56770000000049,1007.1909999999991,243.9976000000005Q1020.299999999999,249.4276000000005,1033.126999999999,255.4942000000005Q1045.952999999999,261.5608000000005,1058.4669999999992,268.24950000000047Q1070.980999999999,274.9382000000005,1083.1509999999992,282.2329000000005Q1095.3219999999992,289.5275000000005,1107.1189999999992,297.4106000000005Q1118.9169999999992,305.2940000000005,1130.3139999999992,313.7460000000005Q1141.710999999999,322.1980000000005,1152.6789999999992,331.2000000000005Q1163.6479999999992,340.2010000000005,1174.1609999999991,349.7300000000005Q1184.673999999999,359.25900000000047,1194.7079999999992,369.2920000000005Q1204.740999999999,379.3250000000005,1214.269999999999,389.8390000000005Q1223.799999999999,400.3520000000005,1232.799999999999,411.3210000000005Q1241.799999999999,422.28900000000044,1250.249999999999,433.6860000000005Q1258.7099999999991,445.0830000000005,1266.589999999999,456.88000000000045Q1274.4699999999991,468.67800000000045,1281.769999999999,480.8490000000005Q1289.059999999999,493.01900000000046,1295.749999999999,505.53300000000047Q1302.4399999999991,518.0460000000005,1308.509999999999,530.8730000000005Q1314.569999999999,543.7000000000005,1319.999999999999,556.8090000000005Q1325.4299999999992,569.9180000000005,1330.2099999999991,583.2780000000005Q1334.989999999999,596.6370000000005,1339.109999999999,610.2150000000005Q1343.229999999999,623.7940000000004,1346.6799999999992,637.5570000000005Q1350.1299999999992,651.3210000000005,1352.8899999999992,665.2380000000005Q1355.6599999999992,679.1540000000005,1357.739999999999,693.1900000000005Q1359.829999999999,707.2250000000005,1361.2199999999991,721.3460000000005Q1362.609999999999,735.4670000000004,1363.299999999999,749.6390000000005Q1363.999999999999,763.8110000000005,1363.999999999999,778.0000000000005Z"
                          fill="#5352ED" fill-opacity="1"/>
                </g>
                <g transform="matrix(1,-1.1293260548939088e-8,1.1293260548939088e-8,1,-0.00000304142173490618,0.000003131806408873672)">
                    <path d="M1294.68640625,777.99798828125Q1294.68640625,790.48498828125,1294.07640625,802.95798828125Q1293.4564062499999,815.42998828125,1292.23640625,827.85798828125Q1291.01640625,840.28498828125,1289.1764062500001,852.63798828125Q1287.34640625,864.98998828125,1284.91640625,877.23698828125Q1282.4764062499999,889.48498828125,1279.44640625,901.59798828125Q1276.40740625,913.71098828125,1272.78240625,925.66098828125Q1269.15740625,937.61098828125,1264.95040625,949.36898828125Q1260.7434062500001,961.12598828125,1255.96540625,972.66298828125Q1251.18640625,984.19998828125,1245.84740625,995.48898828125Q1240.50840625,1006.77698828125,1234.6214062499998,1017.78998828125Q1228.7354062499999,1028.80298828125,1222.31540625,1039.51398828125Q1215.89540625,1050.22498828125,1208.95740625,1060.60798828125Q1202.01940625,1070.9909882812499,1194.5814062499999,1081.02098828125Q1187.14240625,1091.05098828125,1179.22040625,1100.70398828125Q1171.29840625,1110.3569882812499,1162.91240625,1119.60998828125Q1154.52640625,1128.86198828125,1145.69640625,1137.69298828125Q1136.86540625,1146.52298828125,1127.61340625,1154.90898828125Q1118.3604062499999,1163.29498828125,1108.70740625,1171.21698828125Q1099.05440625,1179.13898828125,1089.02440625,1186.5779882812499Q1078.9944062499999,1194.01598828125,1068.61140625,1200.95398828125Q1058.22840625,1207.89198828125,1047.51740625,1214.31198828125Q1036.80640625,1220.7319882812499,1025.7934062499999,1226.6179882812498Q1014.78040625,1232.50498828125,1003.49240625,1237.84398828125Q992.20340625,1243.18298828125,980.66640625,1247.96198828125Q969.12940625,1252.7399882812501,957.37240625,1256.94698828125Q945.61440625,1261.15398828125,933.66440625,1264.77898828125Q921.71540625,1268.40398828125,909.60140625,1271.44298828125Q897.48840625,1274.4729882812499,885.24040625,1276.91298828125Q872.99340625,1279.34298828125,860.64140625,1281.1729882812501Q848.28840625,1283.01298828125,835.86140625,1284.23298828125Q823.43340625,1285.4529882812499,810.96140625,1286.07298828125Q798.48840625,1286.68298828125,786.00140625,1286.68298828125Q773.51340625,1286.68298828125,761.04140625,1286.07298828125Q748.5694062499999,1285.4529882812499,736.14140625,1284.23298828125Q723.71440625,1283.01298828125,711.3614062500001,1281.1729882812501Q699.00940625,1279.34298828125,686.7614062499999,1276.91298828125Q674.51440625,1274.4729882812499,662.40140625,1271.44298828125Q650.28740625,1268.40398828125,638.33740625,1264.77898828125Q626.38840625,1261.15398828125,614.6304062500001,1256.94698828125Q602.87340625,1252.7399882812501,591.33640625,1247.96198828125Q579.79940625,1243.18298828125,568.51040625,1237.84398828125Q557.22240625,1232.50498828125,546.20940625,1226.6179882812498Q535.19540625,1220.7319882812499,524.48540625,1214.31198828125Q513.77440625,1207.89198828125,503.39140625,1200.95398828125Q493.00840625,1194.01598828125,482.97840625000003,1186.5779882812499Q472.94840625,1179.13898828125,463.29540625000004,1171.21698828125Q453.64240625,1163.29498828125,444.38940625,1154.90898828125Q435.13640625,1146.52298828125,426.30640625,1137.69298828125Q417.47640624999997,1128.86198828125,409.09040625,1119.60998828125Q400.70440625000003,1110.3569882812499,392.78240625,1100.70398828125Q384.86040625,1091.05098828125,377.42140625,1081.02098828125Q369.98300625,1070.9909882812499,363.04530625,1060.60798828125Q356.10760625,1050.22498828125,349.68770625,1039.51398828125Q343.26780625000004,1028.80298828125,337.38130625,1017.78998828125Q331.49470625,1006.77698828125,326.15560625,995.48898828125Q320.81650625,984.19998828125,316.03770625,972.66298828125Q311.25900624999997,961.12598828125,307.05210625,949.36898828125Q302.84510625,937.61098828125,299.22020625,925.66098828125Q295.59530625,913.71198828125,292.56100625,901.59798828125Q289.52680625,889.48498828125,287.09064625,877.23698828125Q284.65444625,864.98998828125,282.82215625,852.63798828125Q280.98985625,840.28498828125,279.76586625,827.85798828125Q278.54187625,815.42998828125,277.92913925,802.95798828125Q277.31640625,790.48498828125,277.31640625,777.99798828125Q277.31640625,765.50998828125,277.92913925,753.03798828125Q278.54187625,740.5659882812499,279.76586625,728.13798828125Q280.98985625,715.71098828125,282.82215625,703.3579882812501Q284.65444625,691.00598828125,287.09064625,678.7579882812499Q289.52680625,666.51098828125,292.56100625,654.39798828125Q295.59530625,642.28398828125,299.22020625,630.33398828125Q302.84510625,618.38498828125,307.05210625,606.6269882812501Q311.25900624999997,594.86998828125,316.03770625,583.33298828125Q320.81650625,571.79598828125,326.15560625,560.50698828125Q331.49470625,549.21898828125,337.38130625,538.20598828125Q343.26780625000004,527.19198828125,349.68770625,516.48198828125Q356.10760625,505.77098828124997,363.04530625,495.38798828125Q369.98300625,485.00498828125,377.42140625,474.97498828125003Q384.86040625,464.94498828125,392.78240625,455.29198828125004Q400.70440625000003,445.63898828125,409.09040625,436.38598828125Q417.47640624999997,427.13298828125,426.30640625,418.30298828125Q435.13640625,409.47298828124997,444.38940625,401.08698828125Q453.64240625,392.70098828125003,463.29540625000004,384.77898828125Q472.94840625,376.85698828125,482.97840625000003,369.41798828125Q493.00840625,361.97958828125,503.39140625,355.04188828125Q513.77440625,348.10418828125,524.48540625,341.68428828125Q535.19540625,335.26438828125004,546.20940625,329.37788828125Q557.22240625,323.49128828125,568.51040625,318.15218828125Q579.79940625,312.81308828125,591.33640625,308.03428828125Q602.87340625,303.25558828124997,614.6304062500001,299.04868828125Q626.38840625,294.84168828125,638.33740625,291.21678828125Q650.28740625,287.59188828125,662.40140625,284.55758828125Q674.51440625,281.52338828125,686.7614062499999,279.08722828125Q699.00940625,276.65102828125,711.3614062500001,274.81873828125Q723.71440625,272.98643828125,736.14140625,271.76244828125Q748.5694062499999,270.53845828125,761.04140625,269.92572128125Q773.51340625,269.31298828125,786.00140625,269.31298828125Q798.48840625,269.31298828125,810.96140625,269.92572128125Q823.43340625,270.53845828125,835.86140625,271.76244828125Q848.28840625,272.98643828125,860.64140625,274.81873828125Q872.99340625,276.65102828125,885.24040625,279.08722828125Q897.48840625,281.52338828125,909.60140625,284.55758828125Q921.71440625,287.59188828125,933.66440625,291.21678828125Q945.61440625,294.84168828125,957.37240625,299.04868828125Q969.12940625,303.25558828124997,980.66640625,308.03428828125Q992.20340625,312.81308828125,1003.49240625,318.15218828125Q1014.78040625,323.49128828125,1025.7934062499999,329.37788828125Q1036.80640625,335.26438828125004,1047.51740625,341.68428828125Q1058.22840625,348.10418828125,1068.61140625,355.04188828125Q1078.9944062499999,361.97958828125,1089.02440625,369.41798828125Q1099.05440625,376.85698828125,1108.70740625,384.77898828125Q1118.3604062499999,392.70098828125003,1127.61340625,401.08698828125Q1136.86540625,409.47298828124997,1145.69640625,418.30298828125Q1154.52640625,427.13298828125,1162.91240625,436.38598828125Q1171.29840625,445.63898828125,1179.22040625,455.29198828125004Q1187.14240625,464.94498828125,1194.5814062499999,474.97498828125003Q1202.01940625,485.00498828125,1208.95740625,495.38798828125Q1215.89540625,505.77098828124997,1222.31540625,516.48198828125Q1228.7354062499999,527.19198828125,1234.6214062499998,538.20598828125Q1240.50840625,549.21898828125,1245.84740625,560.50698828125Q1251.18640625,571.79598828125,1255.96540625,583.33298828125Q1260.7434062500001,594.86998828125,1264.95040625,606.6269882812501Q1269.15740625,618.38498828125,1272.78240625,630.33398828125Q1276.40740625,642.28398828125,1279.44640625,654.39798828125Q1282.4764062499999,666.51098828125,1284.91640625,678.7579882812499Q1287.34640625,691.00598828125,1289.1764062500001,703.3579882812501Q1291.01640625,715.71098828125,1292.23640625,728.13798828125Q1293.4564062499999,740.5659882812499,1294.07640625,753.03798828125Q1294.68640625,765.50998828125,1294.68640625,777.99798828125Z"
                          fill="#E6F8FC" fill-opacity="1"/>
                </g>
                <g transform="matrix(1,-1.1293257884403829e-8,1.1293257884403829e-8,1,-0.0000030414265665967832,0.0000031318056699092267)">
                    <path d="M1289.29640625,851.8754765625Q1291.98640625,833.5284765625,1293.33640625,815.0344765625Q1294.68640625,796.5404765625,1294.68640625,777.9974765625Q1294.68640625,765.5094765625,1294.07640625,753.0374765624999Q1293.4564062499999,740.5654765625,1292.23640625,728.1374765625001Q1291.01640625,715.7104765624999,1289.1764062500001,703.3574765625Q1287.34640625,691.0054765625,1284.91640625,678.7574765625Q1282.4764062499999,666.5104765625,1279.44640625,654.3974765625001Q1276.40740625,642.2834765625,1272.78240625,630.3344765625Q1269.15740625,618.3844765625,1264.95040625,606.6264765625Q1260.7434062500001,594.8694765625,1255.96540625,583.3324765625Q1251.18640625,571.7954765625,1245.84740625,560.5064765625Q1240.50840625,549.2184765625,1234.6214062499998,538.2054765625Q1228.7354062499999,527.1924765625,1222.31540625,516.4814765625Q1215.89540625,505.7704765625,1208.95740625,495.3874765625Q1202.01940625,485.00447656250003,1194.5814062499999,474.9744765625Q1187.14240625,464.9444765625,1179.22040625,455.2914765625Q1171.29840625,445.6384765625,1162.91240625,436.3854765625Q1154.52640625,427.13247656249996,1145.69640625,418.30247656250003Q1136.86540625,409.4724765625,1127.61340625,401.0864765625Q1118.3604062499999,392.7004765625,1108.70740625,384.77847656250003Q1099.05440625,376.8564765625,1089.02440625,369.4174765625Q1078.9944062499999,361.9790765625,1068.61140625,355.0413765625Q1058.22840625,348.1036765625,1047.51740625,341.6837765625Q1036.80640625,335.26397656250003,1025.7934062499999,329.3773765625Q1014.78040625,323.4907765625,1003.49240625,318.15167656250003Q992.20340625,312.8125765625,980.66640625,308.0338765625Q969.12940625,303.2550765625,957.37240625,299.0481765625Q945.61440625,294.8412765625,933.66440625,291.2162765625Q921.71540625,287.5913765625,909.60140625,284.5571765625Q897.48840625,281.5229765625,885.24040625,279.0867365625Q872.99340625,276.6505465625,860.64140625,274.8182465625Q848.28840625,272.9859465625,835.86140625,271.7619565625Q823.43340625,270.5379665625,810.96140625,269.9252335625Q798.48840625,269.3125000005,786.00140625,269.3125000005Q773.51340625,269.3125000005,761.04140625,269.9252335625Q748.5694062499999,270.5379665625,736.14140625,271.7619565625Q723.71440625,272.9859465625,711.3614062500001,274.8182465625Q699.00940625,276.6505465625,686.7614062499999,279.0867365625Q674.51440625,281.5229765625,662.40140625,284.5571765625Q650.28740625,287.5913765625,638.33740625,291.2162765625Q626.38840625,294.8412765625,614.6304062500001,299.0481765625Q602.87340625,303.2550765625,591.33640625,308.0338765625Q579.79940625,312.8125765625,568.51040625,318.15167656250003Q557.22240625,323.4907765625,546.20940625,329.3773765625Q535.19540625,335.26397656250003,524.48540625,341.6837765625Q513.77440625,348.1036765625,503.39140625,355.0413765625Q493.00840625,361.9790765625,482.97840625000003,369.4174765625Q472.94840625,376.8564765625,463.29540625000004,384.77847656250003Q453.64240625,392.7004765625,444.38940625,401.0864765625Q435.13640625,409.4724765625,426.30640625,418.30247656250003Q417.47640624999997,427.13247656249996,409.09040625,436.3854765625Q400.70440625000003,445.6384765625,392.78240625,455.2914765625Q384.86040625,464.9444765625,377.42140625,474.9744765625Q369.98300625,485.00447656250003,363.04530625,495.3874765625Q356.10760625,505.7704765625,349.68770625,516.4814765625Q343.26780625000004,527.1924765625,337.38130625,538.2054765625Q331.49470625,549.2184765625,326.15560625,560.5064765625Q320.81650625,571.7954765625,316.03770625,583.3324765625Q311.25900624999997,594.8694765625,307.05210625,606.6264765625Q302.84510625,618.3844765625,299.22020625,630.3344765625Q295.59530625,642.2834765625,292.56100625,654.3974765625001Q289.52680625,666.5104765625,287.09064625,678.7574765625Q284.65444625,691.0054765625,282.82215625,703.3574765625Q280.98985625,715.7104765624999,279.76586625,728.1374765625001Q278.54187625,740.5654765625,277.92913925,753.0374765624999Q277.31640625,765.5094765625,277.31640625,777.9974765625Q277.31640625,790.4854765625,277.92913925,802.9574765625Q278.54187625,815.4294765625,279.76586625,827.8574765625Q280.98985625,840.2844765625,282.82215625,852.6364765625Q284.65444625,864.9894765625,287.09064625,877.2364765625Q289.52680625,889.4844765625,292.56100625,901.5974765625Q295.59530625,913.7114765625,299.22020625,925.6604765625Q302.84510625,937.6104765625,307.05210625,949.3684765625Q311.25900624999997,961.1254765625,316.03770625,972.6624765625Q320.81650625,984.1994765625,326.15560625,995.4884765625Q331.49470625,1006.7764765625,337.38130625,1017.7894765625Q343.26780625000004,1028.8024765625,349.68770625,1039.5134765625Q356.10760625,1050.2244765625,363.04530625,1060.6074765624999Q369.98300625,1070.9904765625001,377.42140625,1081.0204765624999Q384.86040625,1091.0504765625,392.78240625,1100.7034765624999Q400.70440625000003,1110.3564765625001,409.09040625,1119.6094765625Q417.47640624999997,1128.8624765625,426.30640625,1137.6924765625Q435.13640625,1146.5224765624998,444.38940625,1154.9084765625Q453.64240625,1163.2944765625,463.29540625000004,1171.2164765625Q472.94840625,1179.1384765625,482.97840625000003,1186.5774765625001Q493.00840625,1194.0154765625,503.39140625,1200.9534765624999Q513.77440625,1207.8914765625,524.48540625,1214.3114765625Q535.19540625,1220.7314765625001,546.20940625,1226.6174765625Q557.22240625,1232.5044765625,568.51040625,1237.8434765625Q579.79940625,1243.1824765625001,591.33640625,1247.9614765625001Q602.87340625,1252.7394765625,614.6304062500001,1256.9464765625Q626.38840625,1261.1534765625001,638.33740625,1264.7784765625001Q650.28740625,1268.4034765625001,662.40140625,1271.4334765625Q674.51440625,1274.4734765624999,686.7614062499999,1276.9034765625001Q699.00940625,1279.3434765625,711.3614062500001,1281.1734765625001Q723.71440625,1283.0134765625,736.14140625,1284.2334765625Q748.5694062499999,1285.4534765624999,761.04140625,1286.0734765625Q773.51340625,1286.6834765625,786.00140625,1286.6834765625Q796.81240625,1286.6834765625,807.61440625,1286.2234765624999Q818.41540625,1285.7634765625,829.18740625,1284.8434765625Q839.95940625,1283.9234765625001,850.68240625,1282.5534765625Q861.40640625,1281.1834765625,872.06140625,1279.3534765625Q882.71640625,1277.5234765625,893.28440625,1275.2434765624998Q903.85240625,1272.9634765625,914.31440625,1270.2334765625Q924.77540625,1267.5064765625,935.11140625,1264.3374765625Q945.44840625,1261.1684765625,955.64040625,1257.5634765625Q953.82740625,1255.3434765625,952.06240625,1253.0844765625Q950.29840625,1250.8264765625,948.58140625,1248.5314765624998Q946.86540625,1246.2354765625,945.19940625,1243.9044765625Q943.53240625,1241.5724765625,941.91640625,1239.2054765625Q940.30040625,1236.8384765625,938.73440625,1234.4384765625Q937.16940625,1232.0374765625002,935.65640625,1229.6034765625Q934.14240625,1227.1694765625,932.68140625,1224.7044765625Q931.22040625,1222.2384765625,929.81240625,1219.7424765625Q928.40440625,1217.2464765625,927.04940625,1214.7204765625002Q925.69540625,1212.1944765624999,924.39540625,1209.6404765625Q923.09540625,1207.0864765625001,921.85040625,1204.5044765625Q920.60540625,1201.9234765625001,919.41640625,1199.3154765625Q918.22640625,1196.7084765625,917.09340625,1194.0754765625Q915.95940625,1191.4434765625,914.88340625,1188.7874765625002Q913.80640625,1186.1314765625,912.78640625,1183.4534765624999Q911.76640625,1180.7744765625,910.80440625,1178.0744765625Q909.84240625,1175.3754765625,908.93840625,1172.6554765625Q908.03340625,1169.9364765625,907.18840625,1167.1974765625Q906.34240625,1164.4594765625,905.55540625,1161.7034765624999Q904.76840625,1158.9474765625,904.04040625,1156.1754765625Q903.31240625,1153.4034765625001,902.64440625,1150.6164765624999Q901.97540625,1147.8294765625,901.36740625,1145.0294765625Q900.75840625,1142.2284765625,900.20940625,1139.4154765624999Q899.66140625,1136.6024765625,899.17340625,1133.7784765625001Q898.68440625,1130.9544765625,898.25740625,1128.1204765625Q897.82940625,1125.2864765625,897.46240625,1122.4444765624999Q897.09540625,1119.6014765625,896.78940625,1116.7524765624999Q896.48340625,1113.9024765625,896.23840625,1111.0474765625Q895.99340625,1108.1914765625002,895.80940625,1105.3314765625Q895.62540625,1102.4714765625,895.50340625,1099.6074765624999Q895.38040625,1096.7444765625,895.31940625,1093.8794765625Q895.25740625,1091.0134765625,895.25740625,1088.1474765624998Q895.25740625,1081.5724765625,895.58040625,1075.0054765625Q895.90340625,1068.4374765625,896.54740625,1061.8934765625Q897.19240625,1055.3494765625,898.15640625,1048.8454765625002Q899.12140625,1042.3414765625,900.40440625,1035.8924765625Q901.68740625,1029.4424765625,903.28540625,1023.0644765625Q904.88240625,1016.6864765625,906.79140625,1010.3934765625Q908.70040625,1004.1014765625,910.91540625,997.9104765625Q913.13040625,991.7194765625,915.64740625,985.6444765625Q918.16340625,979.5694765625,920.97440625,973.6254765625Q923.78640625,967.6804765625,926.88540625,961.8814765625Q929.98540625,956.0824765625,933.36540625,950.4424765625Q936.74640625,944.8024765625,940.39940625,939.3354765625Q944.05240625,933.8684765625,947.96940625,928.5864765625Q951.88640625,923.3054765625,956.05840625,918.2224765625Q960.22940625,913.1394765625,964.64540625,908.2674765625Q969.06140625,903.3954765625,973.71040625,898.7454765625Q978.36040625,894.0964765625,983.23240625,889.6804765625Q988.10440625,885.2644765625,993.18740625,881.0934765625Q998.27040625,876.9214765625,1003.55140625,873.0044765625Q1008.83340625,869.0874765625,1014.30040625,865.4344765625Q1019.76740625,861.7814765625,1025.40740625,858.4014765625Q1031.04740625,855.0204765625,1036.84640625,851.9204765625Q1042.64540625,848.8214765625,1048.59040625,846.0094765625Q1054.5344062499998,843.1984765625,1060.6094062500001,840.6824765625Q1066.68440625,838.1654765625,1072.87540625,835.9504765625Q1079.06640625,833.7354765625,1085.35840625,831.8264765625Q1091.6504062499998,829.9174765625,1098.02940625,828.3204765625Q1104.40740625,826.7224765625,1110.85640625,825.4394765625Q1117.30640625,824.1564765625,1123.8104062500001,823.1924765625Q1130.31440625,822.2274765625,1136.85840625,821.5824765625Q1143.40240625,820.9384765625,1149.96940625,820.6154765625Q1156.53740625,820.2934765625,1163.11240625,820.2924765625Q1167.21840625,820.2924765625,1171.32340625,820.4184765625Q1175.4274062499999,820.5444765625,1179.5254062499998,820.7964765625Q1183.62440625,821.0474765625,1187.71240625,821.4254765625Q1191.8014062500001,821.8024765625,1195.87640625,822.3044765625Q1199.95240625,822.8064765625,1204.01040625,823.4334765625Q1208.06840625,824.0604765625,1212.10540625,824.8114765625Q1216.14140625,825.5624765625,1220.15340625,826.4364765625Q1224.1654062500002,827.3114765625,1228.14940625,828.3084765625Q1232.13240625,829.3054765625,1236.08340625,830.4244765625Q1240.03340625,831.5424765625,1243.94840625,832.7814765625Q1247.86340625,834.0204765625,1251.73840625,835.3794765625Q1255.61340625,836.7384765625,1259.4444062500002,838.2144765625Q1263.2754062499998,839.6914765625,1267.0604062500001,841.2854765625Q1270.84440625,842.8784765625,1274.57840625,844.5874765625Q1278.31640625,846.2964765625,1281.9964062499998,848.1184765625Q1285.66640625,849.9404765625,1289.29640625,851.8754765625Z"
                          fill-rule="evenodd" fill="#FFFFFF" fill-opacity="1"/>
                </g>
                <g transform="matrix(1,-1.129325699622541e-8,1.129325699622541e-8,1,-0.000009422987773177738,0.000008491779340147332)">
                    <path d="M834.17359375,875.510625Q834.17359375,876.520025,834.12409375,877.528325Q834.07449375,878.536525,833.97559375,879.541125Q833.87659375,880.545625,833.72849375,881.544125Q833.58039375,882.542725,833.38349375,883.532725Q833.18649375,884.522825,832.94129375,885.501925Q832.69599375,886.481125,832.40299375,887.447125Q832.1099937500001,888.413125,831.7698937499999,889.363525Q831.42979375,890.313925,831.04349375,891.246525Q830.65719375,892.179125,830.22559375,893.091725Q829.79399375,894.004225,829.31819375,894.894425Q828.84229375,895.784725,828.32339375,896.650525Q827.80439375,897.516325,827.24359375,898.355625Q826.68279375,899.195025,826.08149375,900.005725Q825.48019375,900.816525,824.83979375,901.596825Q824.19939375,902.377225,823.52149375,903.125125Q822.84359375,903.873025,822.12979375,904.586825Q821.41599375,905.300625,820.66809375,905.978525Q819.92019375,906.656425,819.13979375,907.296825Q818.35949375,907.937225,817.54869375,908.538525Q816.73789375,909.139825,815.89859375,909.700625Q815.05929375,910.261425,814.19349375,910.780425Q813.32769375,911.299325,812.43739375,911.775225Q811.54719375,912.251025,810.63469375,912.682625Q809.72209375,913.114225,808.78949375,913.500525Q807.85689375,913.886825,806.90649375,914.2269249999999Q805.95609375,914.5670250000001,804.99009375,914.860025Q804.02409375,915.153025,803.04489375,915.398325Q802.06579375,915.643625,801.07569375,915.840525Q800.08569375,916.037425,799.08719375,916.185525Q798.08859375,916.333625,797.08409375,916.432625Q796.07949375,916.531525,795.07129375,916.581125Q794.06299375,916.630625,793.05359375,916.630625Q792.04419375,916.630625,791.03589375,916.581125Q790.02769375,916.531525,789.02309375,916.432625Q788.01859375,916.333625,787.01999375,916.185525Q786.02149375,916.037425,785.03149375,915.840525Q784.04139375,915.643525,783.06219375,915.398325Q782.08309375,915.153025,781.11709375,914.860025Q780.15109375,914.5670250000001,779.20069375,914.2269249999999Q778.25029375,913.886825,777.31769375,913.500525Q776.38509375,913.114225,775.47249375,912.682625Q774.55999375,912.251025,773.66979375,911.775225Q772.77949375,911.299325,771.91369375,910.780425Q771.04789375,910.261425,770.20859375,909.700625Q769.36919375,909.139825,768.55839375,908.538525Q767.74769375,907.937225,766.96729375,907.296825Q766.18699375,906.656425,765.43909375,905.978525Q764.69109375,905.300625,763.97739375,904.586825Q763.26359375,903.873025,762.58569375,903.125125Q761.90778375,902.377225,761.26740375,901.596825Q760.62702375,900.816525,760.02569375,900.005725Q759.42437375,899.194925,758.86356375,898.355625Q758.30274375,897.516325,757.78379375,896.650525Q757.26483375,895.784725,756.78899375,894.894425Q756.31314375,894.004225,755.88155375,893.091725Q755.44996375,892.179125,755.06366375,891.246525Q754.67737375,890.313925,754.33730375,889.363525Q753.99723375,888.413125,753.70420375,887.447125Q753.41118375,886.481125,753.16590375,885.501925Q752.92063475,884.522825,752.72370275,883.532725Q752.52677075,882.542725,752.37865575,881.544225Q752.23053975,880.545625,752.13159775,879.541125Q752.03265545,878.536525,751.98312455,877.528325Q751.93359375,876.520025,751.93359375,875.510625Q751.93359375,874.501225,751.98312455,873.492925Q752.03265545,872.484725,752.13159775,871.480125Q752.23053975,870.475625,752.37865575,869.477025Q752.52677075,868.478525,752.72370275,867.488525Q752.92063475,866.498425,753.16590375,865.519225Q753.41118375,864.540125,753.70420375,863.574125Q753.99723375,862.608125,754.33730375,861.657725Q754.67737375,860.707325,755.06366375,859.774725Q755.44996375,858.842125,755.88155375,857.929525Q756.31314375,857.017025,756.78899375,856.126825Q757.26483375,855.236525,757.78379375,854.370725Q758.30274375,853.504925,758.86356375,852.665625Q759.42437375,851.826225,760.02569375,851.015425Q760.62702375,850.204725,761.26740375,849.424325Q761.90778375,848.644025,762.58569375,847.896125Q763.26359375,847.148125,763.97739375,846.434425Q764.69109375,845.720625,765.43909375,845.042725Q766.18699375,844.364815,766.96729375,843.724435Q767.74769375,843.084055,768.55839375,842.482725Q769.36919375,841.881405,770.20859375,841.320595Q771.04789375,840.759775,771.91369375,840.240825Q772.77949375,839.721865,773.66979375,839.246025Q774.55999375,838.770175,775.47249375,838.338585Q776.38509375,837.906995,777.31769375,837.520695Q778.25029375,837.134405,779.20069375,836.794335Q780.15109375,836.454265,781.11709375,836.161235Q782.08309375,835.868215,783.06229375,835.622935Q784.04139375,835.377666,785.03149375,835.180734Q786.02149375,834.983802,787.01999375,834.835687Q788.01859375,834.687571,789.02309375,834.588629Q790.02769375,834.4896867,791.03589375,834.4401558Q792.04419375,834.390625,793.05359375,834.390625Q794.06299375,834.390625,795.07129375,834.4401558Q796.07949375,834.4896867,797.08409375,834.588629Q798.08859375,834.687571,799.08709375,834.835687Q800.08569375,834.983802,801.07569375,835.180734Q802.06579375,835.377666,803.04489375,835.622935Q804.02409375,835.868215,804.99009375,836.161235Q805.95609375,836.454265,806.90649375,836.794335Q807.85689375,837.134405,808.78949375,837.520695Q809.72209375,837.906995,810.63469375,838.338585Q811.54719375,838.770175,812.43739375,839.246025Q813.32769375,839.721865,814.19349375,840.240825Q815.05929375,840.759775,815.89859375,841.320595Q816.73799375,841.881405,817.54869375,842.482725Q818.35949375,843.084055,819.13979375,843.724435Q819.92019375,844.364815,820.66809375,845.042725Q821.41599375,845.720625,822.12979375,846.434425Q822.84359375,847.148125,823.52149375,847.896125Q824.19939375,848.644025,824.83979375,849.424325Q825.48019375,850.204725,826.08149375,851.015425Q826.68279375,851.826225,827.24359375,852.665625Q827.80439375,853.504925,828.32339375,854.370725Q828.84229375,855.236525,829.31819375,856.126825Q829.79399375,857.017025,830.22559375,857.929525Q830.65719375,858.842125,831.04349375,859.774725Q831.42979375,860.707325,831.7698937499999,861.657725Q832.1099937500001,862.608125,832.40299375,863.574125Q832.69599375,864.540125,832.94129375,865.519325Q833.18659375,866.498425,833.38349375,867.488525Q833.58039375,868.478525,833.72849375,869.477025Q833.87659375,870.475625,833.97559375,871.480125Q834.07449375,872.484725,834.12409375,873.492925Q834.17359375,874.501225,834.17359375,875.510625Z"
                          fill="#5352ED" fill-opacity="1"/>
                </g>
            </g>
            <g>
                <g>
                    <path d="M808.05340625,338.00284759375C858.37240625,340.52502359375,907.94740625,351.66608359375,954.59740625,370.98068359375C1008.04740625,393.12068359375,1056.60740625,425.58068359375,1097.51740625,466.48068359375C1138.4274062499999,507.39068359375,1170.8774062500001,555.96068359375,1193.01740625,609.41068359375C1215.15740625,662.8606835937501,1226.54740625,720.15068359375,1226.54740625,778.00068359375L786.00740625,778.00068359375L786.00740625,777.9056835937499Q780.70340625,777.75068359375,775.41340625,777.33968359375Q770.12240625,776.9286835937501,764.85840625,776.26368359375Q759.59340625,775.59868359375,754.36640625,774.68068359375Q749.1404062500001,773.76268359375,743.96440625,772.59468359375Q738.78840625,771.42568359375,733.67440625,770.00968359375Q728.56040625,768.59368359375,723.52040625,766.93268359375Q718.48040625,765.27168359375,713.52640625,763.36968359375Q708.57240625,761.46868359375,703.71540625,759.33068359375Q698.85940625,757.19268359375,694.11140625,754.8226835937501Q689.36240625,752.4536835937499,684.73440625,749.8576835937499Q680.10540625,747.26268359375,675.6074062499999,744.4476835937501Q671.10950625,741.63268359375,666.75210625,738.60368359375Q662.39470625,735.57568359375,658.18820625,732.34068359375Q653.98170625,729.10568359375,649.93580625,725.67268359375Q645.8900062499999,722.23868359375,642.0141062499999,718.61468359375Q638.13830625,714.98968359375,634.44150625,711.18368359375Q630.74470625,707.3766835937499,627.23550625,703.3956835937499Q623.72620625,699.4156835937499,620.41280625,695.2706835937499Q617.09930625,691.12568359375,613.98920625,686.82668359375Q610.87920625,682.52668359375,607.97980625,678.0826835937501Q605.08030625,673.63768359375,602.39830625,669.0596835937499Q599.71630625,664.48068359375,597.25780625,659.77768359375Q594.79930625,655.07568359375,592.57020625,650.25968359375Q590.34100625,645.44468359375,588.34630625,640.52668359375Q586.35160625,635.60968359375,584.59600625,630.6016835937501Q582.84040625,625.59468359375,581.32797625,620.50868359375Q579.81553625,615.42168359375,578.54977625,610.26868359375Q577.28400625,605.11568359375,576.26785625,599.90668359375Q575.25170625,594.69868359375,574.48751625,589.4476835937501Q573.72333625,584.19668359375,573.21288625,578.9146835937499Q572.70244325,573.63268359375,572.44692425,568.3326835937501Q572.19140625,563.03168359375,572.19140625,557.72568359375Q572.19140625,552.41968359375,572.44692425,547.11868359375Q572.70244325,541.8186835937499,573.21288625,536.53668359375Q573.72333625,531.25468359375,574.48751625,526.00368359375Q575.25170625,520.75268359375,576.26785625,515.54468359375Q577.28400625,510.33568359375,578.54977625,505.18268359374997Q579.81553625,500.02968359375,581.32797625,494.94268359374996Q582.84040625,489.85668359375,584.59600625,484.84968359375Q586.35160625,479.84168359374996,588.34630625,474.92468359375Q590.34100625,470.00668359375004,592.57020625,465.19168359375Q594.79930625,460.37568359375,597.25780625,455.67368359375Q599.71630625,450.97068359375,602.39830625,446.39168359375003Q605.08030625,441.81268359374997,607.97980625,437.36888359375Q610.87920625,432.92458359375,613.98920625,428.62498359375Q617.09930625,424.32548359375,620.41280625,420.18068359375Q623.72620625,416.03588359375,627.23550625,412.05548359375Q630.74470625,408.07498359375,634.44150625,404.26818359375Q638.13830625,400.46138359375,642.0141062499999,396.83688359375003Q645.8900062499999,393.21248359375,649.93580625,389.77888359375Q653.98170625,386.34528359374997,658.18820625,383.11058359375Q662.39470625,379.87578359375,666.75210625,376.84728359375Q671.10950625,373.81878359375,675.6074062499999,371.00368359375Q680.10540625,368.18848359375,684.73440625,365.59328359375Q689.36240625,362.99798359375,694.11040625,360.62858359375Q698.85940625,358.25918359375,703.71540625,356.12118359375Q708.57240625,353.98308359375,713.52640625,352.08148359375Q718.48040625,350.17978359375,723.52040625,348.51888359375Q728.56040625,346.85793359375,733.67440625,345.44161359375Q738.78840625,344.02529359375,743.96440625,342.85686359375Q749.1404062500001,341.68844359375,754.36640625,340.77061359375Q759.59340625,339.85279359375,764.85840625,339.18770359375Q770.12240625,338.52261359375,775.41340625,338.11179359375Q780.70340625,337.70097659375,786.00740625,337.54538869375L786.00740625,337.45068359375C787.26940625,337.45068359375,788.5304062499999,337.45610277375,789.7904062499999,337.46693419375Q791.12840625,337.45068359375,792.46640625,337.45068359375Q800.26940625,337.45068359375,808.05340625,338.00284759375Z"
                          fill-rule="evenodd" fill="#5352ED" fill-opacity="1"/>
                </g>
            </g>
            <g transform="matrix(1,0,0,-1,0,2639.1640625)">
                <g>
                    <g transform="matrix(1,0,0,-1,0,3608.36572265625)">
                        <path d="M467.00203125,2059.194861328125L467.00203125,1804.182861328125L453.00203125,1804.182861328125L453.00203125,2059.029861328125Q452.43703125,2082.624861328125,443.79203125,2099.371861328125Q435.16693125,2116.080861328125,420.10173125,2126.847861328125L419.93793125,2126.964861328125L335.19119125,2195.220861328125L343.97287125,2206.124861328125L428.40903125,2138.118861328125Q446.10503125,2125.412861328125,456.23203125,2105.793861328125Q466.37203125,2086.149861328125,467.00003125,2059.275861328125L467.00203125,2059.194861328125Z"
                              fill-rule="evenodd" fill="#5352ED" fill-opacity="1"/>
                    </g>
                    <g transform="matrix(1,0,0,-1,0,3743.472900390625)">
                        <g transform="matrix(1,0,0,-1,0,3781.064697265625)">
                            <rect x="454.7109375" y="1890.5323486328125" width="12.9227294921875" height="18.7967529296875" rx="4" fill="#6363FF"
                                  fill-opacity="1"/>
                        </g>
                        <g transform="matrix(1,0,0,-1,0,3884.445556640625)">
                            <rect x="434.73828125" y="1942.2227783203125" width="51.69085693359375" height="61.08941650390625" rx="5" fill="#1B202C"
                                  fill-opacity="1"/>
                        </g>
                    </g>
                </g>
                <g>
                    <path d="M427.69265625,1407.6921533203124Q427.69265625,1409.8551533203124,427.58665625000003,1412.0154533203124Q427.48065625000004,1414.1758533203124,427.26865625,1416.3284533203125Q427.05665625,1418.4810533203124,426.73865624999996,1420.6201533203125Q426.42165625,1422.7601533203124,425.99965625,1424.8811533203125Q425.57765625,1427.0031533203125,425.05165625,1429.1011533203125Q424.52665625,1431.1991533203125,423.89865625,1433.2691533203124Q423.27065625,1435.3391533203126,422.54165624999996,1437.3751533203126Q421.81365625,1439.4121533203124,420.98565625000003,1441.4101533203125Q420.15765625,1443.4091533203125,419.23265625,1445.3641533203124Q418.30865625,1447.3191533203126,417.28865625000003,1449.2271533203125Q416.26865625,1451.1341533203124,415.15665624999997,1452.9901533203124Q414.04465625,1454.8451533203124,412.84365625,1456.6431533203124Q411.64165625,1458.4421533203126,410.35365625,1460.1791533203125Q409.06465625,1461.9161533203126,407.69265625,1463.5881533203126Q406.32065625,1465.2601533203124,404.86765625,1466.8631533203124Q403.41565625,1468.4661533203125,401.88565625,1469.9951533203125Q400.35665625,1471.5251533203125,398.75365625,1472.9771533203125Q397.15065625,1474.4301533203125,395.47865625,1475.8021533203125Q393.80665625,1477.1741533203126,392.06965625,1478.4631533203126Q390.33265625,1479.7511533203126,388.53365625000004,1480.9531533203126Q386.73565625000003,1482.1541533203126,384.88065625,1483.2661533203125Q383.02465625,1484.3781533203125,381.11765625,1485.3981533203125Q379.20965624999997,1486.4181533203125,377.25465625,1487.3421533203125Q375.29965625,1488.2671533203124,373.30065625,1489.0951533203124Q371.30265625,1489.9231533203124,369.26565625,1490.6511533203125Q367.22965625,1491.3801533203125,365.15965625,1492.0081533203124Q363.08965625,1492.6361533203126,360.99165625,1493.1611533203125Q358.89365625,1493.6871533203125,356.77165625,1494.1091533203125Q354.65065625,1494.5311533203126,352.51065625,1494.8481533203126Q350.37145625,1495.1661533203126,348.21895625,1495.3781533203125Q346.06635625,1495.5901533203125,343.90595625000003,1495.6961533203125Q341.74565625,1495.8021533203125,339.58265625,1495.8021533203125Q337.41965625,1495.8021533203125,335.25935625,1495.6961533203125Q333.09895625,1495.5901533203125,330.94635625,1495.3781533203125Q328.79375625,1495.1661533203126,326.65425625,1494.8481533203126Q324.51465625000003,1494.5311533203126,322.39325625,1494.1091533203125Q320.27185625,1493.6871533203125,318.17365625,1493.1611533203125Q316.07555625,1492.6361533203126,314.00565625,1492.0081533203124Q311.93585625000003,1491.3801533203125,309.89925625,1490.6511533203125Q307.86275625,1489.9231533203124,305.86445625,1489.0951533203124Q303.86605625,1488.2671533203124,301.91075625,1487.3421533203125Q299.95545625,1486.4181533203125,298.04785625,1485.3981533203125Q296.14035625,1484.3781533203125,294.28505625,1483.2661533203125Q292.42985625,1482.1541533203126,290.63135625,1480.9531533203126Q288.83295625,1479.7511533203126,287.09555625,1478.4631533203126Q285.35825625,1477.1741533203126,283.68625625,1475.8021533203125Q282.01425625,1474.4301533203125,280.41155625,1472.9771533203125Q278.80895625,1471.5251533203125,277.27945625,1469.9951533203125Q275.75005625,1468.4661533203125,274.29745625,1466.8631533203124Q272.84485625,1465.2601533203124,271.47265625,1463.5881533203126Q270.10055625,1461.9161533203126,268.81205625,1460.1791533203125Q267.52355625,1458.4421533203126,266.32185625,1456.6431533203124Q265.12015625,1454.8451533203124,264.00815625,1452.9901533203124Q262.89615625,1451.1341533203124,261.87655625,1449.2271533203125Q260.85694625,1447.3191533203126,259.93215625,1445.3641533203124Q259.00736625,1443.4091533203125,258.17962625,1441.4101533203125Q257.35189625,1439.4121533203124,256.62320625,1437.3751533203126Q255.89452625,1435.3391533203126,255.26664625,1433.2691533203124Q254.63876625,1431.1991533203125,254.11320625,1429.1011533203125Q253.58763625,1427.0031533203125,253.16566625,1424.8811533203125Q252.74368625,1422.7601533203124,252.42631425,1420.6201533203125Q252.10893925,1418.4809533203124,251.89693025,1416.3284533203125Q251.68492125,1414.1758533203124,251.57878825,1412.0154533203124Q251.47265625,1409.8551533203124,251.47265625,1407.6921533203124Q251.47265625,1405.5291533203126,251.57878825,1403.3688533203126Q251.68492125,1401.2084533203124,251.89693025,1399.0558533203125Q252.10893925,1396.9032533203126,252.42631425,1394.7637533203124Q252.74368625,1392.6241533203124,253.16566625,1390.5027533203124Q253.58763625,1388.3813533203124,254.11320625,1386.2831533203125Q254.63876625,1384.1850533203126,255.26664625,1382.1151533203124Q255.89452625,1380.0453533203124,256.62320625,1378.0087533203125Q257.35189625,1375.9722533203126,258.17962625,1373.9739533203126Q259.00736625,1371.9755533203124,259.93215625,1370.0202533203126Q260.85695625,1368.0649533203125,261.87655625,1366.1573533203125Q262.89615625,1364.2498533203125,264.00815625,1362.3945533203125Q265.12015625,1360.5393533203126,266.32185625,1358.7408533203125Q267.52355625,1356.9424533203126,268.81205625,1355.2050533203126Q270.10055625,1353.4677533203126,271.47265625,1351.7957533203125Q272.84485625,1350.1237533203125,274.29745625,1348.5210533203126Q275.75005625,1346.9184533203124,277.27945625,1345.3889533203126Q278.80895625,1343.8595533203124,280.41155625,1342.4069533203126Q282.01425625,1340.9543533203125,283.68625625,1339.5821533203125Q285.35825625,1338.2100533203125,287.09555625,1336.9215533203126Q288.83285625,1335.6330533203125,290.63135625,1334.4313533203126Q292.42985625,1333.2296533203125,294.28505625,1332.1176533203125Q296.14035625,1331.0056533203126,298.04785625,1329.9860533203125Q299.95545625,1328.9664433203125,301.91075625,1328.0416533203124Q303.86605625,1327.1168633203124,305.86445625,1326.2891233203125Q307.86275625,1325.4613933203125,309.89925625,1324.7327033203126Q311.93585625000003,1324.0040233203124,314.00565625,1323.3761433203124Q316.07555625,1322.7482633203124,318.17365625,1322.2227033203126Q320.27185625,1321.6971333203126,322.39325625,1321.2751633203125Q324.51465625000003,1320.8531833203126,326.65425625,1320.5358113203124Q328.79375625,1320.2184363203125,330.94635625,1320.0064273203125Q333.09895625,1319.7944183203124,335.25935625,1319.6882853203124Q337.41965625,1319.5821533203125,339.58265625,1319.5821533203125Q341.74565625,1319.5821533203125,343.90595625000003,1319.6882853203124Q346.06635625,1319.7944183203124,348.21895625,1320.0064273203125Q350.37155625,1320.2184363203125,352.51065625,1320.5358113203124Q354.65065625,1320.8531833203126,356.77165625,1321.2751633203125Q358.89365625,1321.6971333203126,360.99165625,1322.2227033203126Q363.08965625,1322.7482633203124,365.15965625,1323.3761433203124Q367.22965625,1324.0040233203124,369.26565625,1324.7327033203126Q371.30265625,1325.4613933203125,373.30065625,1326.2891233203125Q375.29965625,1327.1168633203124,377.25465625,1328.0416533203124Q379.20965624999997,1328.9664533203124,381.11765625,1329.9860533203125Q383.02465625,1331.0056533203126,384.88065625,1332.1176533203125Q386.73565625000003,1333.2296533203125,388.53365625000004,1334.4313533203126Q390.33265625,1335.6330533203125,392.06965625,1336.9215533203126Q393.80665625,1338.2100533203125,395.47865625,1339.5821533203125Q397.15065625,1340.9543533203125,398.75365625,1342.4069533203126Q400.35665625,1343.8595533203124,401.88565625,1345.3889533203126Q403.41565625,1346.9184533203124,404.86765625,1348.5210533203126Q406.32065625,1350.1237533203125,407.69265625,1351.7957533203125Q409.06465625,1353.4677533203126,410.35365625,1355.2050533203126Q411.64165625,1356.9423533203126,412.84365625,1358.7408533203125Q414.04465625,1360.5393533203126,415.15665624999997,1362.3945533203125Q416.26865625,1364.2498533203125,417.28865625000003,1366.1573533203125Q418.30865625,1368.0649533203125,419.23265625,1370.0202533203126Q420.15765625,1371.9755533203124,420.98565625000003,1373.9739533203126Q421.81365625,1375.9722533203126,422.54165624999996,1378.0087533203125Q423.27065625,1380.0453533203124,423.89865625,1382.1151533203124Q424.52665625,1384.1850533203126,425.05165625,1386.2831533203125Q425.57765625,1388.3813533203124,425.99965625,1390.5027533203124Q426.42165625,1392.6241533203124,426.73865624999996,1394.7637533203124Q427.05665625,1396.9032533203126,427.26865625,1399.0558533203125Q427.48065625000004,1401.2084533203124,427.58665625000003,1403.3688533203126Q427.69265625,1405.5291533203126,427.69265625,1407.6921533203124Z"
                          fill="#FFFFFF" fill-opacity="1"/>
                </g>
            </g>
        </g>
    </g>
</svg>